<svg xmlns="http://www.w3.org/2000/svg" version="1.1" xmlns:xlink="http://www.w3.org/1999/xlink" xmlns:svgjs="http://svgjs.dev/svgjs" width="1500" height="314" viewBox="0 0 1500 314"><g transform="matrix(1,0,0,1,-0.9090909090909918,-0.23611203027053307)"><svg viewBox="0 0 396 83" data-background-color="#ffffff" preserveAspectRatio="xMidYMid meet" height="314" width="1500" xmlns="http://www.w3.org/2000/svg" xmlns:xlink="http://www.w3.org/1999/xlink"><g id="tight-bounds" transform="matrix(1,0,0,1,0.2400000000000091,0.06241177870208503)"><svg viewBox="0 0 395.52 82.87517644259582" height="82.87517644259582" width="395.52"><g><svg viewBox="0 0 528.7621021258664 110.79402434728723" height="82.87517644259582" width="395.52"><g transform="matrix(1,0,0,1,133.24210212586638,31.624924182298503)"><svg viewBox="0 0 395.52 47.54417598269023" height="47.54417598269023" width="395.52"><g id="textblocktransform"><svg viewBox="0 0 395.52 47.54417598269023" height="47.54417598269023" width="395.52" id="textblock"><g><svg viewBox="0 0 395.52 47.54417598269023" height="47.54417598269023" width="395.52"><g transform="matrix(1,0,0,1,0,0)"><svg width="395.52" viewBox="0.7 -38.9 414.72 50" height="47.54417598269023" data-palette-color="#224477"><g class="wordmark-text-0" data-fill-palette-color="primary" id="text-0"><path d="M38.3-38.9L38.3-26.8 29.7-26.8 29.7-30.7 26.5-30.7 26.5-8.2 30-8.2 30 0 9 0 9-8.2 12.5-8.2 12.5-30.7 9.3-30.7 9.3-26.8 0.7-26.8 0.7-38.9 38.3-38.9ZM61.25-28.5Q62.25-28.5 63.15-28.3 64.05-28.1 64.65-27.8L64.65-27.8 64.65-18.25Q62.6-19.1 60.25-19.1L60.25-19.1Q57.1-19.1 55.4-17.45 53.7-15.8 53.7-12.55L53.7-12.55 53.7-8.2 58.2-8.2 58.2 0 40 0 40-8.2 42.2-8.2 42.2-19.6 40-19.6 40-27.8 53.7-27.8 53.7-24.15Q55.1-26.25 56.9-27.38 58.7-28.5 61.25-28.5L61.25-28.5ZM78.84-30.55L68.64-30.55 68.64-38.9 78.84-38.9 78.84-30.55ZM82.14 0L66.25 0 66.25-8.2 68.44-8.2 68.44-19.6 66.25-19.6 66.25-27.8 79.94-27.8 79.94-8.2 82.14-8.2 82.14 0ZM83.34 11.1L83.34 2.9 85.54 2.9 85.54-19.6 83.34-19.6 83.34-27.8 97.04-27.8 97.04-24.4Q98.29-26 100.27-27.25 102.24-28.5 104.79-28.5L104.79-28.5Q109.89-28.5 112.47-24.7 115.04-20.9 115.04-13.9L115.04-13.9Q115.04-6.9 112.47-3.1 109.89 0.7 104.79 0.7L104.79 0.7Q102.24 0.7 100.27-0.55 98.29-1.8 97.04-3.4L97.04-3.4 97.04 2.9 100.49 2.9 100.49 11.1 83.34 11.1ZM99.94-8.2Q101.39-8.2 102.12-8.97 102.84-9.75 102.84-11.4L102.84-11.4 102.84-16.4Q102.84-18.05 102.12-18.82 101.39-19.6 99.94-19.6L99.94-19.6Q98.49-19.6 97.77-18.82 97.04-18.05 97.04-16.4L97.04-16.4 97.04-11.4Q97.04-9.75 97.77-8.97 98.49-8.2 99.94-8.2L99.94-8.2Z" fill="#224477" data-fill-palette-color="primary"></path><path d="M131.04 0L131.04-8.2 133.54-8.2 133.54-30.7 131.04-30.7 131.04-38.9 152.99-38.9Q159.44-38.9 162.84-36.13 166.24-33.35 166.24-27.15L166.24-27.15Q166.24-20.95 162.84-18.18 159.44-15.4 152.99-15.4L152.99-15.4 147.54-15.4 147.54-8.2 152.34-8.2 152.34 0 131.04 0ZM147.54-22.5L149.24-22.5Q152.14-22.5 152.14-25.7L152.14-25.7 152.14-27.5Q152.14-29.15 151.41-29.93 150.69-30.7 149.24-30.7L149.24-30.7 147.54-30.7 147.54-22.5ZM183.74 0.05L167.84 0.05 167.84-8.2 170.04-8.2 170.04-30.7 167.84-30.7 167.84-38.9 181.54-38.9 181.54-8.2 183.74-8.2 183.74 0.05ZM212.28-8.2L214.48-8.2 214.48 0 201.28 0 201.28-3.4Q200.18-1.8 198.21-0.55 196.23 0.7 193.38 0.7L193.38 0.7Q189.63 0.7 187.48-1.3 185.33-3.3 185.33-6.95L185.33-6.95Q185.33-16.4 201.38-16.65L201.38-16.65Q201.23-18.35 200.08-18.98 198.93-19.6 196.18-19.6L196.18-19.6Q193.93-19.6 191.36-19.13 188.78-18.65 186.63-17.85L186.63-17.85 186.63-27.05Q189.28-27.7 192.38-28.1 195.48-28.5 198.43-28.5L198.43-28.5Q205.88-28.5 209.08-25.8 212.28-23.1 212.28-17.45L212.28-17.45 212.28-8.2ZM201.28-11.4L201.28-11.7Q199.03-11.7 197.81-11.1 196.58-10.5 196.58-9.1L196.58-9.1Q196.58-8.25 197.11-7.73 197.63-7.2 198.58-7.2L198.58-7.2Q199.88-7.2 200.58-8.3 201.28-9.4 201.28-11.4L201.28-11.4ZM247.08-8.2L249.28-8.2 249.28 0 233.48 0 233.48-8.2 235.58-8.2 235.58-16.4Q235.58-18.05 234.88-18.82 234.18-19.6 232.78-19.6L232.78-19.6Q229.78-19.6 229.78-16.4L229.78-16.4 229.78-8.2 231.88-8.2 231.88 0 216.08 0 216.08-8.2 218.28-8.2 218.28-19.6 216.08-19.6 216.08-27.8 229.78-27.8 229.78-23.9Q233.38-28.5 238.78-28.5L238.78-28.5Q242.93-28.5 245.01-25.9 247.08-23.3 247.08-18.75L247.08-18.75 247.08-8.2ZM281.88-8.2L284.08-8.2 284.08 0 268.28 0 268.28-8.2 270.38-8.2 270.38-16.4Q270.38-18.05 269.68-18.82 268.98-19.6 267.58-19.6L267.58-19.6Q264.58-19.6 264.58-16.4L264.58-16.4 264.58-8.2 266.68-8.2 266.68 0 250.88 0 250.88-8.2 253.08-8.2 253.08-19.6 250.88-19.6 250.88-27.8 264.58-27.8 264.58-23.9Q268.18-28.5 273.58-28.5L273.58-28.5Q277.73-28.5 279.8-25.9 281.88-23.3 281.88-18.75L281.88-18.75 281.88-8.2ZM300.58 0.7Q293.48 0.7 289.48-3.03 285.48-6.75 285.48-13.9L285.48-13.9Q285.48-21.05 289.48-24.78 293.48-28.5 300.58-28.5L300.58-28.5Q307.63-28.5 310.75-24.83 313.88-21.15 313.88-15.7L313.88-15.7 313.88-12.1 297.68-12.1 297.68-11.8Q297.68-9.95 298.78-9.08 299.88-8.2 302.43-8.2L302.43-8.2Q305.48-8.2 308.23-8.65 310.98-9.1 313.03-9.8L313.03-9.8 313.03-1.8Q311.28-0.85 307.9-0.08 304.53 0.7 300.58 0.7L300.58 0.7ZM297.68-17.6L303.48-17.6 303.48-18.2Q303.48-19.9 302.75-20.65 302.03-21.4 300.58-21.4L300.58-21.4Q299.13-21.4 298.4-20.63 297.68-19.85 297.68-18.2L297.68-18.2 297.68-17.6ZM336.72-28.5Q337.72-28.5 338.62-28.3 339.52-28.1 340.12-27.8L340.12-27.8 340.12-18.25Q338.07-19.1 335.72-19.1L335.72-19.1Q332.57-19.1 330.87-17.45 329.17-15.8 329.17-12.55L329.17-12.55 329.17-8.2 333.67-8.2 333.67 0 315.47 0 315.47-8.2 317.67-8.2 317.67-19.6 315.47-19.6 315.47-27.8 329.17-27.8 329.17-24.15Q330.57-26.25 332.37-27.38 334.17-28.5 336.72-28.5L336.72-28.5Z" fill="#2a2c35" data-fill-palette-color="secondary"></path><path d="M384.37-38.9L392.82-8.2 394.82-8.2 394.82 0 375.22 0 375.22-8.2 378.22-8.2 377.42-12.2 370.62-12.2 369.82-8.2 372.82-8.2 372.82 0 355.72 0 355.72-8.2 357.72-8.2 366.17-38.9 384.37-38.9ZM373.77-27.45L371.72-17.5 376.32-17.5 374.27-27.45 373.77-27.45ZM415.42 0L396.42 0 396.42-8.2 398.92-8.2 398.92-30.7 396.42-30.7 396.42-38.9 415.42-38.9 415.42-30.7 412.92-30.7 412.92-8.2 415.42-8.2 415.42 0Z" fill="#224477" data-fill-palette-color="primary"></path></g></svg></g></svg></g></svg></g></svg></g><g><svg viewBox="0 0 110.79402434728723 110.79402434728723" height="110.79402434728723" width="110.79402434728723"><g><svg></svg></g><g id="icon-0"><svg viewBox="0 0 110.79402434728723 110.79402434728723" height="110.79402434728723" width="110.79402434728723"><g><path d="M0 55.397c0-30.595 24.802-55.397 55.397-55.397 30.595 0 55.397 24.802 55.397 55.397 0 30.595-24.802 55.397-55.397 55.397-30.595 0-55.397-24.802-55.397-55.397zM55.397 106.506c28.227 0 51.109-22.882 51.109-51.109 0-28.227-22.882-51.109-51.109-51.109-28.227 0-51.109 22.882-51.109 51.109 0 28.227 22.882 51.109 51.109 51.109z" data-fill-palette-color="accent" fill="#2a2c35" stroke="transparent"></path></g><g transform="matrix(1,0,0,1,27.89914172988975,27.89914172988975)"><svg viewBox="0 0 54.995740887507736 54.995740887507736" height="54.995740887507736" width="54.995740887507736"><g><svg xmlns="http://www.w3.org/2000/svg" xml:space="preserve" viewBox="2 2 508 508" x="0" y="0" height="54.995740887507736" width="54.995740887507736" class="icon-dxe-0" data-fill-palette-color="accent" id="dxe-0"><path d="M444.5 182.3v-32.8h-49.2v32.8H280.6v-32.8h-49.2v32.8h-17c-4-27.7-27.9-49.2-56.7-49.2H59.4C27.7 133.1 2 158.8 2 190.5v172.1h32.6V510H510V182.3z m-32.8-16.4h16.4V215h-16.4z m-163.9 0h16.4V215h-16.4z m32.8 65.5v-32.8h114.7v32.8h49.2v-32.8h49.2v49.2H215v-49.2h16.4v32.8zM18.4 346.1V190.5c0-22.6 18.4-41 41-41h98.3c22.6 0 41 18.4 41 41v155.7h-32.8V206.8h-16.4v139.3h-82V206.8H51.2v139.3H18.4m147.5 147.5h-49.2v-75.5h-16.4v75.5H51V362.5h114.9z m16.4 0V362.5H215v-98.3h278.6v229.4zM104.3 123c33.4 0 60.5-27.1 60.5-60.5S137.7 2 104.3 2C71 2 43.8 29.1 43.8 62.5S71 123 104.3 123m0-104.6c24.3 0 44.1 19.8 44.1 44.1s-19.8 44.1-44.1 44.1-44.1-19.8-44.1-44.1S80 18.4 104.3 18.4" fill="#2a2c35" data-fill-palette-color="accent"></path><path d="M337.9 297c-45.2 0-81.9 36.8-81.9 81.9s36.8 81.9 81.9 81.9 81.9-36.8 81.9-81.9-36.7-81.9-81.9-81.9m0 147.5c-36.1 0-65.5-29.4-65.5-65.5s29.4-65.5 65.5-65.5 65.5 29.4 65.5 65.5-29.3 65.5-65.5 65.5" fill="#2a2c35" data-fill-palette-color="accent"></path><path d="M329.3 399.6L311 381.3l-11.6 11.6 30.8 30.8 54.9-64-12.4-10.7z" fill="#2a2c35" data-fill-palette-color="accent"></path></svg></g></svg></g></svg></g></svg></g></svg></g><defs></defs></svg><rect width="395.52" height="82.87517644259582" fill="none" stroke="none" visibility="hidden"></rect></g></svg></g></svg>